<svg version="1.0" xmlns="http://www.w3.org/2000/svg" xmlns:xlink="http://www.w3.org/1999/xlink" width="100%" height="100%" viewBox="0 0 700.000000 270.000000" preserveAspectRatio="xMidYMid meet" color-interpolation-filters="sRGB" style="margin: auto;">
  <g data-v-0dd9719b="" fill="#333" class="iconlinesvg-g iconlinesvg" transform="translate(0,50) scale(1.2)">
    <g class="tp-name">
      <!--P-->
      <g transform="translate(0, 0) scale(3.25)">
        <g>
          <g class="imagesvg">
            <g>
              <rect fill="#34d399" fill-opacity="0" stroke-width="2" x="0" y="0" width="51.91528022640656" height="54.44421396508474" class="image-rect"></rect>
              <svg x="0" y="0" width="51.91528022640656" height="54.44421396508474" filtersec="colorsb6991341605" class="image-svg-svg primary" style="overflow: visible;">
                <svg xmlns="http://www.w3.org/2000/svg" viewBox="-0.002140522003173828 0 89.49066925048828 93.84962463378906">
                  <path d="M30.94 0h19.17a39.62 39.62 0 0 1 37.13 27.33c4.5 14 2.23 26.88-6.67 38.41A38.37 38.37 0 0 1 57.49 80a54.32 54.32 0 0 1-11.49.78 58.25 58.25 0 0 1-7.71-.13c-6.29-.84-9.9-7.29-7.75-13.53a9.81 9.81 0 0 1 9-6.55c4 0 8.06.15 12.06-.14 14.25-1 22.71-18 15.17-30.28-4-6.59-9.87-9.93-17.56-9.92H10.15A10 10 0 0 1 .06 11 10.06 10.06 0 0 1 8 .17a9.91 9.91 0 0 1 2-.15z" fill="#34d399"></path>
                  <path d="M0 65.1V47.81c0-9.24 5.34-16.31 14.24-18.76a17 17 0 0 1 4.38-.58q14-.07 28.09 0a9.38 9.38 0 0 1 .54 18.75c-6.17 0-12.35-.13-18.53-.27a9.43 9.43 0 0 0-9.91 9.57v27.75a9.07 9.07 0 0 1-5.41 8.65A9.34 9.34 0 0 1 0 84.31V65.1z" fill="#34d399"></path>
                </svg>
              </svg>
              <!---->
            </g>
          </g>
        </g>
      </g>
      <!--B-->
      <g transform="translate(200, 4.049606982542372)">
        <g data-gra="path-name" fill="#34d399" transform="scale(3)">
          <path d="M30.23-23.27Q34.06-22.55 36.53-19.44Q39-16.32 39-12.29L39-12.29Q39-8.64 37.21-5.88Q35.43-3.12 32.05-1.56Q28.67 0 24.05 0L24.05 0L4.49 0L4.49-45.37L23.21-45.37Q27.82-45.37 31.17-43.88Q34.52-42.38 36.24-39.72Q37.96-37.05 37.96-33.67L37.96-33.67Q37.96-29.71 35.85-27.04Q33.73-24.38 30.23-23.27L30.23-23.27ZM13.59-38.02L13.59-26.65L21.91-26.65Q25.16-26.65 26.91-28.11Q28.67-29.57 28.67-32.30L28.67-32.30Q28.67-35.04 26.91-36.53Q25.16-38.02 21.91-38.02L21.91-38.02L13.59-38.02ZM22.75-7.41Q26.07-7.41 27.92-8.97Q29.77-10.53 29.77-13.39L29.77-13.39Q29.77-16.32 27.82-17.97Q25.87-19.63 22.55-19.63L22.55-19.63L13.59-19.63L13.59-7.41L22.75-7.41Z" transform="translate(-4.485, 45.955)"></path>
        </g>
      </g>
      <!--A-->
      <g transform="translate(315, 4.049606982542372)">
        <g data-gra="path-name" fill="#34d399" transform="scale(3)">
          <path d="M35.30 0L32.30-8.64L14.24-8.64L11.25 0L1.69 0L18.00-45.44L28.60-45.44L44.91 0L35.30 0ZM16.71-15.93L29.84-15.93L23.27-34.91L16.71-15.93Z" transform="translate(-1.69, 45.955)"></path>
        </g>
      </g>
      <!--C-->
      <g transform="translate(450, 4.049606982542372)">
        <g data-gra="path-name" fill="#34d399" transform="scale(3)">
          <path d="M2.27-22.75Q2.27-29.45 5.30-34.74Q8.32-40.04 13.55-43.00Q18.79-45.95 25.29-45.95L25.29-45.95Q32.89-45.95 38.61-42.05Q44.33-38.16 46.61-31.27L46.61-31.27L36.14-31.27Q34.58-34.52 31.75-36.14Q28.93-37.77 25.22-37.77L25.22-37.77Q21.25-37.77 18.17-35.91Q15.08-34.06 13.36-30.68Q11.63-27.30 11.63-22.75L11.63-22.75Q11.63-18.27 13.36-14.85Q15.08-11.44 18.17-9.59Q21.25-7.74 25.22-7.74L25.22-7.74Q28.93-7.74 31.75-9.39Q34.58-11.05 36.14-14.30L36.14-14.30L46.61-14.30Q44.33-7.35 38.64-3.48Q32.95 0.39 25.29 0.39L25.29 0.39Q18.79 0.39 13.55-2.57Q8.32-5.53 5.30-10.79Q2.27-16.05 2.27-22.75L2.27-22.75Z" transform="translate(-2.275, 45.955)"></path>
        </g>
      </g>
    </g>
    <!---->
  </g>
  <defs v-gra="od"></defs>
</svg>
