<svg xmlns="http://www.w3.org/2000/svg" width="0" height="0">
  <defs>
    <clipPath id="padClip" clipPathUnits="objectBoundingBox">
      <path transform="scale(0.00225, 0.0015)" fill-rule="evenodd" d="M201.5 21.469c-9.202 1.463-16.488 3.444-28.5 7.752-22.703 8.142-43.724 23.027-58.354 41.322-8.483 10.607-12.614 17.477-16.136 26.834-2.269 6.027-2.51 8.099-2.51 21.54 0 17.101 1.241 31.201 4.038 45.884 2.605 13.678 2.606 24.63.002 28.9-2.529 4.148-3.893 4.794-27.04 12.798-31.836 11.01-36.798 13.87-41.63 24.001l-2.385 5 .593 40c.879 59.397 1.459 63.413 10.423 72.194 4.595 4.503 11.563 8.157 38.999 20.458 9.625 4.315 18.287 8.796 19.25 9.958 2.227 2.687 2.215 3.185-.71 28.89-1.345 11.825-3.147 27.8-4.004 35.5-.858 7.7-2.213 18.725-3.011 24.5-.799 5.775-1.938 15.675-2.532 22-.593 6.325-1.783 16.45-2.643 22.5-2.108 14.814-1.367 35.864 1.653 47 11.796 43.492 50.781 71.565 115.997 83.528 13.77 2.525 37.738 3.602 47.5 2.134 41.918-6.306 68.246-15.33 91.894-31.497 21.989-15.034 35.778-35.525 41.037-60.984 1.775-8.596 2.053-27.705.548-37.681-.54-3.575-1.851-14.15-2.913-23.5-2.245-19.747-4.521-38.45-6.571-54-1.469-11.136-4.106-36.179-5.16-49-.487-5.913-.286-7.349 1.294-9.251 1.029-1.238 9.746-5.782 19.371-10.097 27.436-12.301 34.404-15.955 38.999-20.458 8.964-8.781 9.544-12.797 10.423-72.194l.593-40-2.385-5c-4.832-10.131-9.794-12.991-41.63-24.001-23.147-8.004-24.511-8.65-27.04-12.798-2.604-4.27-2.603-15.222.002-28.9 2.797-14.683 4.038-28.783 4.038-45.884 0-13.441-.241-15.513-2.51-21.54C359.824 69.04 329.226 41.028 296 29.182c-11.813-4.211-22.136-6.89-31.322-8.128-10.731-1.446-53.225-1.166-63.178.415m2.799 3.541c-7.524 1.041-18.88 4.081-30.299 8.111-29.975 10.579-56.912 34.036-69.904 60.872l-4.596 9.493.072 16.507c.076 17.3 1.18 28.643 4.46 45.808 3.752 19.635 2.037 30.521-5.547 35.208-1.856 1.147-11.161 4.807-20.679 8.133-9.518 3.326-19.566 6.845-22.328 7.82-8.246 2.912-15.054 6.745-17.823 10.036-5.432 6.456-5.632 8.877-4.642 56.25 1.088 52.095 1.464 54.433 9.985 62.131 4.159 3.758 12.817 8.115 39.002 19.628 7.975 3.507 15.678 7.178 17.118 8.159 3.617 2.463 5.241 6.905 4.603 12.596a26685.19 26685.19 0 0 0-2.629 23.738c-1.154 10.45-2.564 22.375-3.134 26.5-1.218 8.809-3.266 26.443-5.98 51.5-1.073 9.9-2.489 21.15-3.148 25-.658 3.85-1.197 12.85-1.197 20 .001 19.949 4.592 35.584 15.123 51.5 17.629 26.642 53.175 45.643 101.245 54.12 36.95 6.515 79.403-.032 117.499-18.121 31.364-14.893 49.551-35.307 57.132-64.128 2.287-8.698 2.731-12.468 2.752-23.371.013-7.15-.533-16.15-1.213-20-.681-3.85-2.112-14.65-3.181-24-3.838-33.576-5.942-51.007-6.454-53.482-.441-2.134-1.524-12.192-5.249-48.763-.633-6.221.893-10.569 4.595-13.089 1.44-.981 9.143-4.652 17.118-8.159 26.185-11.513 34.843-15.87 39.002-19.628 8.521-7.698 8.897-10.036 9.985-62.131.99-47.373.79-49.794-4.642-56.25-2.769-3.291-9.577-7.124-17.823-10.036-2.762-.975-12.81-4.494-22.328-7.82-9.518-3.326-18.823-6.986-20.679-8.133-7.584-4.687-9.299-15.573-5.547-35.208 3.28-17.163 4.384-28.508 4.46-45.801l.072-16.5-4.29-8.928c-13.83-28.787-40.746-51.582-74.214-62.851C271.925 25.3 268.271 24.8 238 24.461c-15.125-.17-30.291.077-33.701.549"/><path fill-rule="evenodd" d="M204.299 25.01c-7.524 1.041-18.88 4.081-30.299 8.111-29.975 10.579-56.912 34.036-69.904 60.872l-4.596 9.493.072 16.507c.076 17.3 1.18 28.643 4.46 45.808 3.752 19.635 2.037 30.521-5.547 35.208-1.856 1.147-11.161 4.807-20.679 8.133-9.518 3.326-19.566 6.845-22.328 7.82-8.246 2.912-15.054 6.745-17.823 10.036-5.432 6.456-5.632 8.877-4.642 56.25 1.088 52.095 1.464 54.433 9.985 62.131 4.159 3.758 12.817 8.115 39.002 19.628 7.975 3.507 15.678 7.178 17.118 8.159 3.617 2.463 5.241 6.905 4.603 12.596a26685.19 26685.19 0 0 0-2.629 23.738c-1.154 10.45-2.564 22.375-3.134 26.5-1.218 8.809-3.266 26.443-5.98 51.5-1.073 9.9-2.489 21.15-3.148 25-.658 3.85-1.197 12.85-1.197 20 .001 19.949 4.592 35.584 15.123 51.5 17.629 26.642 53.175 45.643 101.245 54.12 36.95 6.515 79.403-.032 117.499-18.121 31.364-14.893 49.551-35.307 57.132-64.128 2.287-8.698 2.731-12.468 2.752-23.371.013-7.15-.533-16.15-1.213-20-.681-3.85-2.112-14.65-3.181-24-3.838-33.576-5.942-51.007-6.454-53.482-.441-2.134-1.524-12.192-5.249-48.763-.633-6.221.893-10.569 4.595-13.089 1.44-.981 9.143-4.652 17.118-8.159 26.185-11.513 34.843-15.87 39.002-19.628 8.521-7.698 8.897-10.036 9.985-62.131.99-47.373.79-49.794-4.642-56.25-2.769-3.291-9.577-7.124-17.823-10.036-2.762-.975-12.81-4.494-22.328-7.82-9.518-3.326-18.823-6.986-20.679-8.133-7.584-4.687-9.299-15.573-5.547-35.208 3.28-17.163 4.384-28.508 4.46-45.801l.072-16.5-4.29-8.928c-13.83-28.787-40.746-51.582-74.214-62.851C271.925 25.3 268.271 24.8 238 24.461c-15.125-.17-30.291.077-33.701.549"/>
    </clipPath>
  </defs>
</svg>
